<svg width="202" height="202" viewBox="0 0 202 202" fill="none" xmlns="http://www.w3.org/2000/svg">
<path fill-rule="evenodd" clip-rule="evenodd" d="M201.579 110.275C201.827 107.548 201.967 104.79 201.994 102.005L99.9942 0.00471219C97.209 0.0318644 94.4507 0.171756 91.7238 0.420043L201.579 110.275ZM90.4352 0.545664C87.8714 0.812136 85.336 1.17452 82.8329 1.62916L200.37 119.166C200.824 116.663 201.187 114.128 201.453 111.564L90.4352 0.545664ZM193.199 142.295C194.105 140.275 194.947 138.219 195.721 136.132L65.8673 6.27769C63.7794 7.05236 61.7241 7.89409 59.7041 8.80026L193.199 142.295ZM58.7321 9.24249C56.7684 10.1486 54.8387 11.1158 52.9455 12.1418L189.857 149.053C190.883 147.16 191.85 145.23 192.756 143.267L58.7321 9.24249ZM194.54 62.8367C191.819 56.1725 188.406 49.8642 184.39 44.0008L157.998 17.6087C152.135 13.5933 145.826 10.1802 139.162 7.45855L194.54 62.8367ZM136.829 6.53951C132.773 5.00021 128.592 3.71464 124.306 2.70218L199.297 77.6931C198.284 73.4067 196.999 69.2259 195.459 65.17L136.829 6.53951ZM201.395 89.8914C201.011 86.3773 200.446 82.9174 199.711 79.5211L122.478 2.28838C119.082 1.55285 115.622 0.988137 112.107 0.603698L201.395 89.8914ZM110.533 0.443931C107.527 0.162412 104.482 0.0126937 101.404 0.000610352L201.998 100.595C201.986 97.5171 201.836 94.4721 201.555 91.4654L110.533 0.443931ZM198.512 127.408C199.138 125.089 199.684 122.738 200.146 120.357L81.6423 1.85281C79.2609 2.31503 76.9094 2.86092 74.591 3.48728L198.512 127.408ZM73.4829 3.79346C71.2576 4.42213 69.0635 5.12516 66.9035 5.89969L196.099 135.095C196.874 132.935 197.577 130.741 198.205 128.516L73.4829 3.79346ZM163.309 21.5051C169.702 26.5235 175.475 32.2966 180.494 38.6902L163.309 21.5051ZM35.0259 24.5221C36.5832 23.1774 38.1821 21.8796 39.8203 20.6306L181.368 162.179C180.119 163.817 178.821 165.416 177.477 166.973L35.0259 24.5221ZM34.2705 25.1809L176.818 167.728C175.464 169.266 174.063 170.762 172.619 172.215L29.784 29.3801C31.2365 27.9358 32.7327 26.5353 34.2705 25.1809ZM45.736 16.4463C43.9946 17.5868 42.2907 18.7796 40.6263 20.0224L181.976 161.373C183.219 159.708 184.412 158.004 185.553 156.263L45.736 16.4463ZM46.5943 15.8904C48.3698 14.753 50.1833 13.6697 52.0323 12.6428L189.356 149.967C188.329 151.816 187.246 153.629 186.109 155.405L46.5943 15.8904ZM99.9843 201.994L0.00444915 102.015C0.0349552 105.113 0.205006 108.179 0.50862 111.205L90.7943 201.49C93.8203 201.794 96.8856 201.964 99.9843 201.994ZM89.2084 201.319L0.680371 112.791C1.09286 116.338 1.6892 119.83 2.45959 123.255L78.7434 199.539C82.1691 200.31 85.6607 200.906 89.2084 201.319ZM101.403 201.999C104.203 201.988 106.976 201.863 109.718 201.628L0.370548 92.2807C0.136096 95.0227 0.0111955 97.796 0.000244141 100.596L101.403 201.999ZM0.489646 90.9856L111.013 201.509C113.589 201.256 116.137 200.905 118.652 200.462L1.53685 83.347C1.09347 85.8624 0.743175 88.4098 0.489646 90.9856ZM19.0426 160.038C14.617 153.906 10.8628 147.256 7.88781 140.198L61.8009 194.111C54.7426 191.136 48.0932 187.382 41.9605 182.956L19.0426 160.038ZM2.89366 125.104C3.95997 129.459 5.30868 133.703 6.91926 137.815L64.1837 195.08C68.2963 196.69 72.5403 198.039 76.8951 199.105L2.89366 125.104ZM24.2681 166.678C27.6626 170.64 31.3587 174.336 35.3208 177.731L24.2681 166.678ZM119.848 200.244L1.75512 82.1511C2.20654 79.7596 2.74226 77.3979 3.35908 75.0692L126.93 198.64C124.601 199.257 122.239 199.792 119.848 200.244ZM5.74032 67.3506C4.97416 69.5196 4.27998 71.7225 3.66065 73.9566L128.042 198.338C130.276 197.719 132.479 197.025 134.648 196.259L5.74032 67.3506ZM135.689 195.885L6.11425 66.3103C6.88063 64.2147 7.71446 62.1515 8.61311 60.1234L141.876 193.386C139.847 194.284 137.784 195.118 135.689 195.885ZM11.9292 53.3395C10.9102 55.24 9.95017 57.1769 9.05166 59.1477L142.851 192.947C144.822 192.049 146.759 191.089 148.659 190.07L11.9292 53.3395ZM149.576 189.572L12.4269 52.4229C13.4468 50.5672 14.5234 48.7469 15.6542 46.9645L155.034 186.345C153.252 187.476 151.432 188.552 149.576 189.572ZM19.7638 40.9741C18.5271 42.645 17.3407 44.3554 16.2069 46.103L155.896 185.792C157.644 184.658 159.354 183.472 161.025 182.235L19.7638 40.9741ZM161.834 181.63L20.3689 40.165C21.6114 38.5207 22.9031 36.9157 24.2417 35.352L166.647 177.757C165.083 179.096 163.478 180.387 161.834 181.63ZM29.0784 30.0887C27.64 31.5475 26.2456 33.0498 24.8975 34.5935L167.405 177.101C168.949 175.753 170.451 174.359 171.91 172.92L29.0784 30.0887Z" fill="url(#paint0_linear_33_108)" fill-opacity="0.4"/>
<defs>
<linearGradient id="paint0_linear_33_108" x1="25.6101" y1="35.7104" x2="170.256" y2="180.357" gradientUnits="userSpaceOnUse">
<stop stop-color="#EF7141"/>
<stop offset="0.494792" stop-color="#4F92F1"/>
<stop offset="0.989583" stop-color="#2C2C2C"/>
</linearGradient>
</defs>
</svg>
