<svg xmlns="http://www.w3.org/2000/svg" viewBox="0 0 127.33 72.99"><defs><style>.cls-1{fill:#201600;}.cls-2,.cls-4{font-size:20px;}.cls-2{font-family:Arial-BoldMT, Arial;font-weight:700;letter-spacing:0.02em;}.cls-3{letter-spacing:-0.05em;}.cls-4{fill:#585c62;font-family:ArialMT, Arial;letter-spacing:0.01em;}.cls-5{letter-spacing:-0.03em;}</style></defs><g id="Слой_2" data-name="Слой 2"><g id="Слой_2-2" data-name="Слой 2"><path class="cls-1" d="M27.31,50.27c-6.19-4.32-8.71-10.43-6.93-14a9,9,0,0,1,5.82-4.17c3.58-.86,5.29,1.13,7.68-.29,1.18-.71,1.94-2.06,3.46-4.77,1.41-2.5,1.67-3.26,2.48-3.78s2.35-.43,5,.09c3.29.63,3.89,1.13,5.67,1.17a10.91,10.91,0,0,0,4.77-1L108.76,7.77l4.56,3.54a2.84,2.84,0,0,0,3.18-.45,2.77,2.77,0,0,0,.79-1.69,1.45,1.45,0,0,0-.4-1.15l-4.44-4.58a2.25,2.25,0,0,0-2.25-.61c-2.79.83-5.58,1.81-8.37,2.6a1.08,1.08,0,0,0-.7.62,4.3,4.3,0,0,1-.4.77,1.4,1.4,0,0,1-.81.58l-49.3,13c2-3.3,1.9-7.19,0-9.45-2.63-3.13-9-3.4-13,1.17-.94.77-2.31,1.85-4,3.06a25.82,25.82,0,0,1-3.06,2c-4.05,1.36-11.24-1.39-13.77-2.69a13.92,13.92,0,0,0-8.46,0,12.28,12.28,0,0,0-6.15,4.17c-2.71,3.63-2.14,8-1.72,11.22a28.22,28.22,0,0,0,12.91,20,14.11,14.11,0,0,0,7.29,2.4A12.93,12.93,0,0,0,27.31,50.27Z"/><circle class="cls-1" cx="101.97" cy="3.6" r="1.31"/><circle class="cls-1" cx="105.43" cy="2.29" r="1.31"/><circle class="cls-1" cx="108.9" cy="1.31" r="1.31"/><text class="cls-2" transform="translate(27.34 49.14)">GUI<tspan class="cls-3" x="36.76" y="0">T</tspan><tspan x="47.89" y="0">AR</tspan></text><text class="cls-4" transform="translate(43 66.49)">SCHOO<tspan class="cls-5" x="73.84" y="0">L</tspan></text></g></g></svg>